<?xml version="1.0" encoding="UTF-8"?>
<svg width="112px" height="32px" viewBox="0 0 112 32" version="1.1" xmlns="http://www.w3.org/2000/svg" xmlns:xlink="http://www.w3.org/1999/xlink">
    <title>voice/logo copy</title>
    <defs>
        <path d="M0,0 L112,0 L112,32 L0,32 L0,0 Z" id="path-1"></path>
        <polygon id="path-2" points="0 0 3.46761071 0 3.46761071 12.0971848 0 12.0971848"></polygon>
        <polygon id="path-4" points="0 0 4.1426154 0 4.1426154 27.5479785 0 27.5479785"></polygon>
        <polygon id="path-6" points="0 0 17.6047147 0 17.6047147 19.1506356 0 19.1506356"></polygon>
    </defs>
    <g id="Voice" stroke="none" stroke-width="1" fill="none" fill-rule="evenodd">
        <g id="voice/logo-copy" xlink:href="#path-1">
            <g id="Group-18" stroke-width="1" transform="translate(0, 2.7042)">
                <g id="Group-10">
                    <path d="M18.2298461,14.6478873 C18.2298461,6.55803344 16.3500159,0 14.0311225,0 C11.7122291,0 9.83239887,6.55803344 9.83239887,14.6478873 C9.83239887,22.7377412 11.7122291,29.2957746 14.0311225,29.2957746 C16.3500159,29.2957746 18.2298461,22.7377412 18.2298461,14.6478873" id="Fill-1" fill="#FF4DFF"></path>
                    <path d="M11.3013706,14.6648201 C11.3013706,8.15808052 9.78936486,2.88326729 7.92436394,2.88326729 C6.05907224,2.88326729 4.5470665,8.15808052 4.5470665,14.6648201 C4.5470665,21.1715597 6.05907224,26.4463729 7.92436394,26.4463729 C9.78936486,26.4463729 11.3013706,21.1715597 11.3013706,14.6648201" id="Fill-3" fill="#FF7FAA"></path>
                    <path d="M7.20840014,14.662372 C7.20840014,9.73874669 6.06421887,5.74744512 4.65281967,5.74744512 C3.24171123,5.74744512 2.09752996,9.73874669 2.09752996,14.662372 C2.09752996,19.5859973 3.24171123,23.5772989 4.65281967,23.5772989 C6.06421887,23.5772989 7.20840014,19.5859973 7.20840014,14.662372" id="Fill-5" fill="#FFB155"></path>
                    <g id="Group-9" transform="translate(0, 8.5993)">
                        <mask id="mask-3" fill="white">
                            <use xlink:href="#path-2"></use>
                        </mask>
                        <g id="Clip-8"></g>
                        <path d="M3.46761071,6.04859239 C3.46761071,2.70808136 2.69125391,0 1.7337472,0 C0.776240486,0 -0.000116308134,2.70808136 -0.000116308134,6.04859239 C-0.000116308134,9.38910342 0.776240486,12.0971848 1.7337472,12.0971848 C2.69125391,12.0971848 3.46761071,9.38910342 3.46761071,6.04859239" id="Fill-7" fill="#FFE300" mask="url(#mask-3)"></path>
                    </g>
                </g>
                <g id="Group-17" transform="translate(16.6963, 2.8833)">
                    <path d="M7.72355794,11.76462 C7.72355794,8.424109 8.49991474,5.71602764 9.45742145,5.71602764 C10.4149282,5.71602764 11.191285,8.424109 11.191285,11.76462 C11.191285,15.1051311 10.4149282,17.8132124 9.45742145,17.8132124 C8.49991474,17.8132124 7.72355794,15.1051311 7.72355794,11.76462" id="Fill-11" fill="#00E1FF"></path>
                    <path d="M4.02135373,11.7791047 C4.02135373,6.85547939 5.165535,2.86417782 6.5769342,2.86417782 C7.98804264,2.86417782 9.13222391,6.85547939 9.13222391,11.7791047 C9.13222391,16.70273 7.98804264,20.6940316 6.5769342,20.6940316 C5.165535,20.6940316 4.02135373,16.70273 4.02135373,11.7791047" id="Fill-13" fill="#55B0FF"></path>
                    <path d="M0,11.7815528 C0,5.27481322 1.51200574,0 3.37700667,0 C5.24229837,0 6.75430411,5.27481322 6.75430411,11.7815528 C6.75430411,18.2882924 5.24229837,23.5631057 3.37700667,23.5631057 C1.51200574,23.5631057 0,18.2882924 0,11.7815528" id="Fill-15" fill="#AA7EFF"></path>
                </g>
            </g>
            <polygon id="Fill-19" fill="#000000" points="38.8636753 9.01408451 45.2868563 22.8509289 51.4439596 9.01408451 53.0763052 9.01408451 44.8964941 27.4929577 43.6542237 27.4929577 35.0843373 9.01408451"></polygon>
            <g id="Group-30" stroke-width="1" transform="translate(51.2771, 0)">
                <path d="M10.3555276,26.5950863 C11.0697916,26.5950863 11.7242688,26.4092143 12.3195369,26.0374702 C12.914805,25.6660171 13.4266027,25.1654134 13.85493,24.5359501 C14.2835461,23.9067777 14.6168501,23.1784153 14.8548418,22.351154 C15.0928335,21.5241835 15.2121182,20.6492178 15.2121182,19.7259662 C15.2121182,18.3954832 15.0988988,17.1484827 14.8727489,15.9858372 C14.6463102,14.8229009 14.2774808,13.8100583 13.7659719,12.9467279 C13.2535966,12.0836883 12.5872776,11.403612 11.7661484,10.9059171 C10.9447304,10.4085131 9.94481863,10.1595202 8.76641308,10.1595202 C8.15959198,10.1595202 7.57010038,10.3366659 6.99880475,10.6900845 C6.42750911,11.043794 5.92437615,11.5263631 5.48998352,12.1377919 C5.05530206,12.7492207 4.70726807,13.4653661 4.44559271,14.286519 C4.18362854,15.1076719 4.05279086,15.9797287 4.05279086,16.9026895 C4.05279086,18.2456803 4.19258211,19.504316 4.47245343,20.6788875 C4.75203592,21.85375 5.16245609,22.8788094 5.70429159,23.7537751 C6.24583826,24.6290316 6.90638078,25.3213248 7.68620799,25.8306549 C8.46574637,26.3405667 9.35561585,26.5950863 10.3555276,26.5950863 M9.65917081,27.9436038 C8.25461537,27.9436038 6.96299046,27.6978106 5.78458491,27.2062242 C4.60646818,26.7149287 3.58864926,26.0464875 2.73141699,25.2011916 C1.87447354,24.3564774 1.20497744,23.3671962 0.722928701,22.2345113 C0.240879959,21.1015355 0,19.8876952 0,18.5929904 C0,17.2386554 0.240879959,15.9648939 0.722928701,14.7719969 C1.20497744,13.5793909 1.87447354,12.5394966 2.73141699,11.6520231 C3.58864926,10.7651314 4.60646818,10.0670205 5.78458491,9.55710873 C6.96299046,9.04806956 8.25461537,8.79296821 9.65917081,8.79296821 C11.0515956,8.79296821 12.3345558,9.02683535 13.506896,9.49427876 C14.6792362,9.96201304 15.6941669,10.6031115 16.5511103,11.4184468 C17.4080538,12.2337822 18.0775499,13.1893214 18.5598875,14.286519 C19.0419362,15.3834257 19.2828162,16.5611969 19.2828162,17.8198327 C19.2828162,19.2108186 19.0419362,20.5203582 18.5598875,21.7487425 C18.0775499,22.9779993 17.4080538,24.0504722 16.5511103,24.9676153 C15.6941669,25.8847585 14.6792362,26.610212 13.506896,27.1433942 C12.3345558,27.6765764 11.0515956,27.9436038 9.65917081,27.9436038" id="Fill-20" fill="#000000"></path>
                <g id="Group-24" transform="translate(20.5859, 0)">
                    <mask id="mask-5" fill="white">
                        <use xlink:href="#path-4"></use>
                    </mask>
                    <g id="Clip-23"></g>
                    <path d="M0.285647817,9.83603312 L2.83914867,8.79323 L3.89249305,8.79323 L3.89249305,27.5479785 L0.285647817,27.5479785 L0.285647817,9.83603312 Z M0,2.08583893 C0,1.79815908 0.0537214296,1.52851375 0.160875464,1.27661208 C0.267740673,1.02500129 0.416485492,0.803351085 0.60710992,0.611370595 C0.797445523,0.419680985 1.01781891,0.269587148 1.26765244,0.161670843 C1.5177748,0.0537545371 1.78551547,-5.81759059e-05 2.07145211,-5.81759059e-05 C2.35709993,-5.81759059e-05 2.6248406,0.0537545371 2.87467414,0.161670843 C3.12479649,0.269587148 3.34488106,0.419680985 3.53521666,0.611370595 C3.72555226,0.803351085 3.87458591,1.02500129 3.98173994,1.27661208 C4.08860515,1.52851375 4.1426154,1.79815908 4.1426154,2.08583893 C4.1426154,2.37351879 4.08860515,2.64345499 3.98173994,2.89506578 C3.87458591,3.14696745 3.72555226,3.36861766 3.53521666,3.56030727 C3.34488106,3.75228776 3.12479649,3.90209071 2.87467414,4.00971614 C2.6248406,4.11763244 2.35709993,4.17173604 2.07145211,4.17173604 C1.78551547,4.17173604 1.5177748,4.11763244 1.26765244,4.00971614 C1.01781891,3.90209071 0.797445523,3.75228776 0.60710992,3.56030727 C0.416485492,3.36861766 0.267740673,3.14696745 0.160875464,2.89506578 C0.0537214296,2.64345499 0,2.37351879 0,2.08583893 L0,2.08583893 Z" id="Fill-22" fill="#000000" mask="url(#mask-5)"></path>
                </g>
                <path d="M39.2979767,14.3135126 C39.1668502,13.8341432 38.9880676,13.3486652 38.7622065,12.8567879 C38.5357678,12.3654924 38.2472318,11.9189923 37.8963095,11.5172877 C37.5450985,11.115874 37.1312124,10.7889254 36.6555178,10.5373146 C36.1792456,10.2854129 35.6197917,10.1594621 34.9771564,10.1594621 C34.1557384,10.1594621 33.4175019,10.3275904 32.7630247,10.6629745 C32.1082587,10.9989404 31.5545814,11.4541668 31.1025705,12.0298174 C30.6499818,12.6051771 30.3051249,13.2765271 30.0668444,14.0438673 C29.8285639,14.8109166 29.7098568,15.6262519 29.7098568,16.4892915 C29.7098568,17.6644448 29.8617787,18.7758955 30.1650449,19.8248071 C30.4688886,20.8740095 30.897216,21.7937706 31.4506044,22.5849629 C32.0042818,23.3761552 32.6708896,24.0027098 33.450428,24.4640447 C34.2299664,24.9256705 35.1022175,25.156338 36.0660262,25.156338 C36.9111278,25.156338 37.6461872,25.0216607 38.2712042,24.7520154 C38.8962213,24.4823701 39.437768,24.1196433 39.8961331,23.664126 C40.3542093,23.2083178 40.7501883,22.6780444 41.0834922,22.0727241 C41.4165073,21.4674038 41.7139969,20.8289232 41.9762499,20.1572824 L43.0651198,20.6069821 C42.7554995,21.7579924 42.339014,22.7891604 41.8153745,23.6999042 C41.2914461,24.6109389 40.6753826,25.3811878 39.967184,26.0106511 C39.2589854,26.6398236 38.4615398,27.1194839 37.5748474,27.4493413 C36.6878662,27.7786169 35.7266569,27.9435456 34.6912197,27.9435456 C33.4888417,27.9435456 32.3638687,27.7067697 31.3168785,27.2332178 C30.2690218,26.7599568 29.3586458,26.1095502 28.5848839,25.2822888 C27.811122,24.4553183 27.1982356,23.49018 26.7459358,22.3874557 C26.293636,21.2844406 26.0674861,20.1034697 26.0674861,18.8448339 C26.0674861,17.9218732 26.1804167,17.0317818 26.4065666,16.1745599 C26.6327164,15.3176288 26.9512903,14.5174192 27.3619993,13.774222 C27.7724195,13.0307339 28.2665989,12.3532755 28.8439598,11.7421376 C29.4210319,11.1307088 30.0607791,10.606253 30.7632012,10.1687702 C31.4656233,9.7312874 32.218301,9.39270362 33.0221007,9.15243713 C33.8253227,8.91304328 34.6614708,8.79320091 35.5305448,8.79320091 C36.2563618,8.79320091 36.9527186,8.8772651 37.6193265,9.04481171 C38.2859343,9.21294007 38.8991095,9.44942513 39.4585634,9.75513952 C40.0180172,10.0608539 40.5119077,10.4384155 40.940235,10.8881153 C41.36914,11.3375242 41.7021551,11.8381278 41.9401468,12.3893445 L39.2979767,14.3135126 Z" id="Fill-25" fill="#000000"></path>
                <g id="Group-29" transform="translate(43.1182, 8.793)">
                    <mask id="mask-7" fill="white">
                        <use xlink:href="#path-6"></use>
                    </mask>
                    <g id="Clip-28"></g>
                    <path d="M12.5696592,6.27572585 C12.5696592,5.58052377 12.4474863,4.93331682 12.2037181,4.33352323 C11.9596611,3.7343114 11.6234689,3.21596408 11.1951416,2.77819039 C10.7665254,2.34070757 10.2662807,1.99601533 9.69527392,1.74411366 C9.12368947,1.49250287 8.51051422,1.36655203 7.85603702,1.36655203 C7.30842503,1.36655203 6.7847855,1.48959407 6.28482962,1.73538727 C5.78487373,1.98118048 5.33863928,2.32296392 4.9455486,2.76015586 C4.55274675,3.19792955 4.2283964,3.71627687 3.97249754,4.3154887 C3.71659869,4.91528229 3.56496562,5.56248924 3.51730952,6.25769132 L12.5696592,6.27572585 Z M8.96310283,19.1506356 C7.72519935,19.1506356 6.56181269,18.9167684 5.4723652,18.449325 C4.38349536,17.9818816 3.43383912,17.3463099 2.62455178,16.5431915 C1.81497561,15.7400731 1.17522848,14.796169 0.705310383,13.7108975 C0.234814636,12.6262077 0,11.4722886 0,10.249722 C0,8.77496277 0.214308069,7.41161041 0.642924206,6.15879228 C1.07125152,4.90626502 1.67836144,3.82419317 2.46396514,2.91286761 C3.24956884,2.0021238 4.19287094,1.2888872 5.29416024,0.773157789 C6.3948719,0.257719263 7.62382181,0 8.98100997,0 C10.1712573,0 11.2661925,0.212923816 12.2661043,0.638189688 C13.266016,1.06403732 14.1258477,1.63357944 14.846177,2.34652516 C15.5662175,3.05976177 16.1256713,3.88411436 16.5245385,4.81900117 C16.9234056,5.75417885 17.1226948,6.73153407 17.1226948,7.75019418 L3.49940237,7.75019418 C3.49940237,8.98497779 3.65710076,10.1298796 3.97249754,11.1846088 C4.28789432,12.2396288 4.73152936,13.1509544 5.30282499,13.9177128 C5.87440945,14.6853439 6.55257029,15.2845558 7.33817399,15.7159301 C8.12377769,16.1475953 8.98678647,16.3634279 9.92748914,16.3634279 C10.712804,16.3634279 11.4683699,16.2345683 12.1947645,15.976849 C12.9205815,15.7191298 13.5785246,15.380546 14.1677274,14.9608068 C14.7569301,14.5410677 15.2597743,14.0616982 15.6765486,13.5221167 C16.0930341,12.982826 16.3847472,12.4255009 16.5513992,11.8498503 L17.6047435,12.3175846 C17.3430682,13.2643974 16.9202286,14.15158 16.3370911,14.9788414 C15.7536648,15.8061028 15.0723269,16.5280657 14.2924997,17.145603 C13.5129613,17.7631402 12.6649714,18.251527 11.7485301,18.6110541 C10.8317999,18.970872 9.90322785,19.1506356 8.96310283,19.1506356 L8.96310283,19.1506356 Z" id="Fill-27" fill="#000000" mask="url(#mask-7)"></path>
                </g>
            </g>
        </g>
    </g>
</svg>