<svg width="28" height="30" viewBox="0 0 28 30" fill="none" xmlns="http://www.w3.org/2000/svg">
<path fill-rule="evenodd" clip-rule="evenodd" d="M18.2295 15.353C18.2295 7.26311 16.3496 0.705078 14.0308 0.705078C11.7119 0.705078 9.83203 7.26311 9.83203 15.353C9.83203 23.4428 11.7119 30.0009 14.0308 30.0009C16.3496 30.0009 18.2295 23.4428 18.2295 15.353Z" fill="#FF4DFF"/>
<path fill-rule="evenodd" clip-rule="evenodd" d="M11.3012 15.3694C11.3012 8.8627 9.78917 3.58789 7.92417 3.58789C6.05888 3.58789 4.54688 8.8627 4.54688 15.3694C4.54688 21.8762 6.05888 27.151 7.92417 27.151C9.78917 27.151 11.3012 21.8762 11.3012 15.3694Z" fill="#FF7FAA"/>
<path fill-rule="evenodd" clip-rule="evenodd" d="M7.20853 15.3681C7.20853 10.4444 6.06435 6.45312 4.65295 6.45312C3.24184 6.45312 2.09766 10.4444 2.09766 15.3681C2.09766 20.2917 3.24184 24.283 4.65295 24.283C6.06435 24.283 7.20853 20.2917 7.20853 15.3681Z" fill="#FFB155"/>
<mask id="mask0_307_7" style="mask-type:luminance" maskUnits="userSpaceOnUse" x="0" y="9" width="4" height="13">
<path d="M0 9.30469H3.46761V21.4019H0V9.30469Z" fill="white"/>
</mask>
<g mask="url(#mask0_307_7)">
<path fill-rule="evenodd" clip-rule="evenodd" d="M3.46773 15.3533C3.46773 12.0128 2.69137 9.30469 1.73386 9.30469C0.776357 9.30469 0 12.0128 0 15.3533C0 18.6938 0.776357 21.4019 1.73386 21.4019C2.69137 21.4019 3.46773 18.6938 3.46773 15.3533Z" fill="#FFE300"/>
</g>
<path fill-rule="evenodd" clip-rule="evenodd" d="M24.418 15.3533C24.418 12.0128 25.1943 9.30469 26.1518 9.30469C27.1093 9.30469 27.8857 12.0128 27.8857 15.3533C27.8857 18.6938 27.1093 21.4019 26.1518 21.4019C25.1943 21.4019 24.418 18.6938 24.418 15.3533Z" fill="#00E1FF"/>
<path fill-rule="evenodd" clip-rule="evenodd" d="M20.7148 15.3661C20.7148 10.4425 21.859 6.45117 23.2704 6.45117C24.6815 6.45117 25.8257 10.4425 25.8257 15.3661C25.8257 20.2897 24.6815 24.281 23.2704 24.281C21.859 24.281 20.7148 20.2897 20.7148 15.3661Z" fill="#55B0FF"/>
<path fill-rule="evenodd" clip-rule="evenodd" d="M16.6953 15.3694C16.6953 8.8627 18.2073 3.58789 20.0723 3.58789C21.9376 3.58789 23.4496 8.8627 23.4496 15.3694C23.4496 21.8762 21.9376 27.151 20.0723 27.151C18.2073 27.151 16.6953 21.8762 16.6953 15.3694Z" fill="#AA7EFF"/>
</svg>
