<svg height="32" viewBox="0 0 112 32" width="112" xmlns="http://www.w3.org/2000/svg" xmlns:xlink="http://www.w3.org/1999/xlink"><defs><path id="a" d="m0 0h112v32h-112z"/><mask id="b" fill="#fff"><path d="m0 0h3.46761071v12.0971848h-3.46761071z" fill="#fff" fill-rule="evenodd"/></mask></defs><g fill="none" fill-rule="evenodd" xlink:href="#a"><g><g transform="translate(0 2.7042)"><path d="m18.2298461 14.6478873c0-8.08985386-1.8798302-14.6478873-4.1987236-14.6478873s-4.19872363 6.55803344-4.19872363 14.6478873c0 8.0898539 1.87983023 14.6478873 4.19872363 14.6478873s4.1987236-6.5580334 4.1987236-14.6478873" fill="#ff4dff"/><path d="m11.3013706 14.6648201c0-6.50673958-1.51200574-11.78155281-3.37700666-11.78155281-1.8652917 0-3.37729744 5.27481323-3.37729744 11.78155281 0 6.5067396 1.51200574 11.7815528 3.37729744 11.7815528 1.86500092 0 3.37700666-5.2748132 3.37700666-11.7815528" fill="#ff7faa"/><path d="m7.20840014 14.662372c0-4.92362531-1.14418127-8.91492688-2.55558047-8.91492688-1.41110844 0-2.55528971 3.99130157-2.55528971 8.91492688 0 4.9236253 1.14418127 8.9149269 2.55528971 8.9149269 1.4113992 0 2.55558047-3.9913016 2.55558047-8.9149269" fill="#ffb155"/><path d="m3.46761071 6.04859239c0-3.34051103-.7763568-6.04859239-1.73386351-6.04859239s-1.73386351 2.70808136-1.73386351 6.04859239.7763568 6.04859241 1.73386351 6.04859241 1.73386351-2.70808138 1.73386351-6.04859241" fill="#ffe300" mask="url(#b)" transform="translate(0 8.5993)"/></g><g transform="translate(16.6963 5.5875)"><path d="m7.72355794 11.76462c0-3.340511.7763568-6.04859236 1.73386351-6.04859236.95750675 0 1.73386355 2.70808136 1.73386355 6.04859236 0 3.3405111-.7763568 6.0485924-1.73386355 6.0485924-.95750671 0-1.73386351-2.7080813-1.73386351-6.0485924" fill="#00e1ff"/><path d="m4.02135373 11.7791047c0-4.92362531 1.14418127-8.91492688 2.55558047-8.91492688 1.41110844 0 2.55528971 3.99130157 2.55528971 8.91492688 0 4.9236253-1.14418127 8.9149269-2.55528971 8.9149269-1.4113992 0-2.55558047-3.9913016-2.55558047-8.9149269" fill="#55b0ff"/><path d="m0 11.7815528c0-6.50673958 1.51200574-11.7815528 3.37700667-11.7815528 1.8652917 0 3.37729744 5.27481322 3.37729744 11.7815528 0 6.5067396-1.51200574 11.7815529-3.37729744 11.7815529-1.86500093 0-3.37700667-5.2748133-3.37700667-11.7815529" fill="#aa7eff"/></g></g><path d="m60.9362792 8.79296821c1.3924248 0 2.675385.23386714 3.8477252.70131055 1.1723403.46773428 2.1872709 1.10883274 3.0442144 1.92416804.8569434.8153354 1.5264395 1.7708746 2.0087771 2.8680722.4820487 1.0969067.7229287 2.2746779.7229287 3.5333137 0 1.3909859-.24088 2.7005255-.7229287 3.9289098-.4823376 1.2292568-1.1518337 2.3017297-2.0087771 3.2188728-.8569435.9171432-1.8718741 1.6425967-3.0442144 2.1757789-1.1723402.5331822-2.4553004.8002096-3.8477252.8002096-1.4045554 0-2.6961803-.2457932-3.8745859-.7373796-1.1781167-.4912955-2.1959356-1.1597367-3.0531679-2.0050326-.8569434-.8447142-1.5264395-1.8339954-2.0084883-2.9666803-.4820487-1.1329758-.7229287-2.3468161-.7229287-3.6415209 0-1.354335.24088-2.6280965.7229287-3.8209935.4820488-1.192606 1.1515449-2.2325003 2.0084883-3.1199738.8572323-.8868917 1.8750512-1.5850026 3.0531679-2.09491437 1.1784056-.50903917 2.4700305-.76414052 3.8745859-.76414052zm-22.0726039.2211163 6.423181 13.83684439 6.1571033-13.83684439h1.6323456l-8.1798111 18.47887319h-1.2422704l-8.5698864-18.47887319zm21.1798462 1.14543569c-.6068211 0-1.1963127.1771457-1.7676083.5305643-.5712957.3537095-1.0744286.8362786-1.5088212 1.4477074-.4346815.6114288-.7827155 1.3275742-1.0443909 2.1487271-.2619641.8211529-.3928018 1.6932097-.3928018 2.6161705 0 1.3429908.1397912 2.6016265.4196626 3.776198.2795825 1.1748625.6900026 2.1999219 1.2318381 3.0748876.5415467.8752565 1.2020892 1.5675497 1.9819164 2.0768798.7795384.5099118 1.6694079.7644314 2.6693197.7644314.7142639 0 1.3687411-.185872 1.9640092-.5576161.5952681-.3714531 1.1070658-.8720568 1.5353931-1.5015201.4286162-.6291724.7619201-1.3575348.9999118-2.1847961.2379917-.8269705.3572764-1.7019362.3572764-2.6251878 0-1.330483-.1132194-2.5774835-.3393693-3.740129-.2264387-1.1629363-.5952681-2.1757789-1.1067769-3.0391093-.5123754-.8630396-1.1786944-1.5431159-1.9998236-2.0408108-.821418-.497404-1.8213297-.7463969-2.9997353-.7463969zm12.1051133-.32348708 2.5535008-1.04280312h1.0533444v18.7547485h-3.6068452zm-.2856478-7.75019419c0-.28767985.0537214-.55732518.1608754-.80922685.1068652-.25161079.2556101-.47326099.4462345-.66524148.1903356-.19168961.410709-.34178345.6605425-.44969976.2501224-.1079163.517863-.16172902.8037997-.16172902.2856478 0 .5533885.05381272.803222.16172902.2501224.10791631.4702069.25801015.6605425.44969976.1903356.19198049.3393693.41363069.4465233.66524148.1068652.25190167.1608755.521547.1608755.80922685 0 .28767986-.0540103.55761606-.1608755.80922685-.107154.25190167-.2561877.47355188-.4465233.66524149-.1903356.19198049-.4104201.34178344-.6605425.44940887-.2498335.1079163-.5175742.1620199-.803222.1620199-.2859367 0-.5536773-.0541036-.8037997-.1620199-.2498335-.10762543-.4702069-.25742838-.6605425-.44940887-.1906244-.19168961-.3393693-.41333982-.4462345-.66524149-.107154-.25161079-.1608754-.52154699-.1608754-.80922685zm18.7120982 12.22767367c-.1311265-.4793694-.3099092-.9648474-.5357702-1.4567247-.2264387-.4912955-.5149748-.9377956-.865897-1.3395002-.3512111-.4014137-.7650972-.7283623-1.2407918-.9799731-.4762722-.2519017-1.035726-.3778525-1.6783614-.3778525-.821418 0-1.5596544.1681283-2.2141316.5035124-.654766.3359659-1.2084434.7911923-1.6604543 1.3668429-.4525886.5753597-.7974455 1.2467097-1.0357261 2.0140499-.2382805.7670493-.3569875 1.5823846-.3569875 2.4454242 0 1.1751533.1519219 2.286604.455188 3.3355156.3038438 1.0492024.7321711 1.9689635 1.2855596 2.7601558.5536773.7911923 1.2202851 1.4177469 1.9998235 1.8790818.7795384.4616258 1.6517896.6922933 2.6155982.6922933.8451017 0 1.580161-.1346773 2.2051781-.4043226.625017-.2696453 1.1665637-.6323721 1.6249288-1.0878894.4580763-.4558082.8540552-.9860816 1.1873591-1.5914019.3330151-.6053203.6305048-1.2438009.8927578-1.9154417l1.0888698.4496997c-.3096203 1.1510103-.7261058 2.1821783-1.2497453 3.0929221-.5239284.9110347-1.1399918 1.6812836-1.8481905 2.3107469-.7081986.6291725-1.5056441 1.1088328-2.3923365 1.4386902-.8869813.3292756-1.8481905.4942043-2.8836277.4942043-1.2023781 0-2.327351-.2367759-3.3743412-.7103278-1.0478567-.473261-1.9582328-1.1236676-2.7319947-1.950929-.7737619-.8269705-1.3866483-1.7921088-1.8389481-2.8948331-.4522997-1.1030151-.6784496-2.283986-.6784496-3.5426218 0-.9229607.1129305-1.8130521.3390804-2.670274.2261499-.8569311.5447237-1.6571407.9554327-2.4003379.4104202-.7434881.9045996-1.4209465 1.4819605-2.0320844.5770722-.6114288 1.2168193-1.1358846 1.9192414-1.5733674.7024222-.4374828 1.4550998-.77606658 2.2588995-1.01633307.803222-.23939385 1.6393701-.35923622 2.5084442-.35923622.7258169 0 1.4221737.08406419 2.0887816.2516108.6666078.16812836 1.2797831.40461342 1.8392369.71032781.5594538.30571438 1.0533444.68327598 1.4816717 1.13297578.4289049.4494089.76192.9500125.9999118 1.5012292zm16.3898598.7552396c0-.695202-.122173-1.342409-.365942-1.9422026-.244057-.5992118-.580249-1.1175591-1.008576-1.5553328-.428616-.4374828-.928861-.7821751-1.499868-1.0340768-.571584-.2516107-1.184759-.3775616-1.839237-.3775616-.547612 0-1.071251.1230421-1.571207.3688353s-.9461904.5875766-1.3392811 1.0247685c-.3928018.4377737-.7171522.9561211-.973051 1.5553329-.2558989.5997936-.4075319 1.2470005-.4551881 1.9422026zm-3.606557 12.8749098c-1.237903 0-2.40129-.2338672-3.4907375-.7013106-1.0888698-.4674434-2.038526-1.1030151-2.8478134-1.9061335-.8095762-.8031184-1.4493233-1.7470225-1.9192414-2.832294-.4704957-1.0846898-.7053104-2.2386089-.7053104-3.4611755 0-1.4747592.2143081-2.8381116.6429242-4.0909297.4283274-1.2525273 1.0354373-2.3345991 1.821041-3.2459247.7856037-.9107438 1.7289058-1.6239804 2.8301951-2.13970982 1.1007114-.51543853 2.3296614-.77315779 3.6868494-.77315779 1.190248 0 2.285183.21292381 3.285095.63818968.999911.42584764 1.859743.99538973 2.580072 1.70833553.720041.7132366 1.279495 1.5375891 1.678362 2.472476.398867.9351776.598156 1.9125329.598156 2.931193h-13.6232923c0 1.2347836.1576984 2.3796854.4730952 3.4344146.3153968 1.05502.7590318 1.9663456 1.3303274 2.733104.5715847.7676311 1.2497457 1.3668429 2.0353487 1.7982173.785604.4316652 1.648613.6474978 2.589315.6474978.785315 0 1.540881-.1288596 2.267276-.3865789.725817-.2577192 1.38376-.596303 1.972963-1.0160422.589202-.4197391 1.092047-.8991086 1.508821-1.4386901.416485-.5392907.708199-1.0966159.874851-1.6722664l1.053344.4677342c-.261675.9468129-.684515 1.8339955-1.267653 2.6612569-.583426.8272613-1.264764 1.5492243-2.044591 2.1667616-.779538.6175372-1.627528 1.1059239-2.54397 1.465451-.91673.359818-1.845302.5395816-2.785427.5395816z" fill="#fff"/></g></svg>